REM DIRINDEX 1\2,1\3,1\4,1\6,1\5\7,1\5\8
REM DIRNAME cjc114,folder01,folder02,folder03,folder04,folder05,folder06,folder07
TITLE ""
FILE "DB4500_5th_2A_43.mp3" MP3
  TRACK 01 AUDIO
    TITLE "0:"
    INDEX 01 00:00:00
  TRACK 02 AUDIO
    TITLE "2:cjc114_1409"
    INDEX 01 00:00:01
  TRACK 03 AUDIO
    TITLE "0:"
    INDEX 01 00:01:17
  TRACK 04 AUDIO
    TITLE "3:cjc114_1410"
    INDEX 01 00:01:44
  TRACK 05 AUDIO
    TITLE "0:"
    INDEX 01 00:02:65
  TRACK 06 AUDIO
    TITLE "4:cjc114_1411"
    INDEX 01 00:03:17
  TRACK 07 AUDIO
    TITLE "0:"
    INDEX 01 00:05:57
  TRACK 08 AUDIO
    TITLE "4:cjc114_1412"
    INDEX 01 00:06:18
  TRACK 09 AUDIO
    TITLE "0:"
    INDEX 01 00:08:72
  TRACK 10 AUDIO
    TITLE "2:cjc114_1413"
    INDEX 01 00:09:45
  TRACK 11 AUDIO
    TITLE "0:"
    INDEX 01 00:10:57
  TRACK 12 AUDIO
    TITLE "3:cjc114_1414"
    INDEX 01 00:11:09
  TRACK 13 AUDIO
    TITLE "0:"
    INDEX 01 00:12:34
  TRACK 14 AUDIO
    TITLE "4:cjc114_1415"
    INDEX 01 00:12:61
  TRACK 15 AUDIO
    TITLE "0:"
    INDEX 01 00:15:66
  TRACK 16 AUDIO
    TITLE "2:cjc114_1416"
    INDEX 01 00:16:48
  TRACK 17 AUDIO
    TITLE "0:"
    INDEX 01 00:17:55
  TRACK 18 AUDIO
    TITLE "3:cjc114_1417"
    INDEX 01 00:18:01
  TRACK 19 AUDIO
    TITLE "0:"
    INDEX 01 00:19:22
  TRACK 20 AUDIO
    TITLE "4:cjc114_1418"
    INDEX 01 00:19:52
  TRACK 21 AUDIO
    TITLE "0:"
    INDEX 01 00:23:32
  TRACK 22 AUDIO
    TITLE "2:cjc114_1419"
    INDEX 01 00:24:10
  TRACK 23 AUDIO
    TITLE "0:"
    INDEX 01 00:25:21
  TRACK 24 AUDIO
    TITLE "3:cjc114_1420"
    INDEX 01 00:25:48
  TRACK 25 AUDIO
    TITLE "0:"
    INDEX 01 00:26:62
  TRACK 26 AUDIO
    TITLE "4:cjc114_1421"
    INDEX 01 00:27:14
  TRACK 27 AUDIO
    TITLE "0:"
    INDEX 01 00:30:01
  TRACK 28 AUDIO
    TITLE "2:cjc114_1422"
    INDEX 01 00:30:54
  TRACK 29 AUDIO
    TITLE "0:"
    INDEX 01 00:31:57
  TRACK 30 AUDIO
    TITLE "3:cjc114_1423"
    INDEX 01 00:32:09
  TRACK 31 AUDIO
    TITLE "0:"
    INDEX 01 00:33:32
  TRACK 32 AUDIO
    TITLE "4:cjc114_1424"
    INDEX 01 00:33:60
  TRACK 33 AUDIO
    TITLE "0:"
    INDEX 01 00:36:70
  TRACK 34 AUDIO
    TITLE "2:cjc114_1425"
    INDEX 01 00:37:34
  TRACK 35 AUDIO
    TITLE "0:"
    INDEX 01 00:38:51
  TRACK 36 AUDIO
    TITLE "3:cjc114_1426"
    INDEX 01 00:39:00
  TRACK 37 AUDIO
    TITLE "0:"
    INDEX 01 00:40:58
  TRACK 38 AUDIO
    TITLE "4:cjc114_1427"
    INDEX 01 00:41:04
  TRACK 39 AUDIO
    TITLE "0:"
    INDEX 01 00:44:16
  TRACK 40 AUDIO
    TITLE "4:cjc114_1428"
    INDEX 01 00:44:61
  TRACK 41 AUDIO
    TITLE "0:"
    INDEX 01 00:48:30
  TRACK 42 AUDIO
    TITLE "2:cjc114_1429"
    INDEX 01 00:49:06
  TRACK 43 AUDIO
    TITLE "0:"
    INDEX 01 00:50:35
  TRACK 44 AUDIO
    TITLE "3:cjc114_1430"
    INDEX 01 00:50:56
  TRACK 45 AUDIO
    TITLE "0:"
    INDEX 01 00:53:49
  TRACK 46 AUDIO
    TITLE "4:cjc114_1431"
    INDEX 01 00:53:66
  TRACK 47 AUDIO
    TITLE "0:"
    INDEX 01 00:58:54
  TRACK 48 AUDIO
    TITLE "2:cjc114_1432"
    INDEX 01 00:59:26
  TRACK 49 AUDIO
    TITLE "0:"
    INDEX 01 01:00:35
  TRACK 50 AUDIO
    TITLE "3:cjc114_1433"
    INDEX 01 01:00:59
  TRACK 51 AUDIO
    TITLE "0:"
    INDEX 01 01:03:37
  TRACK 52 AUDIO
    TITLE "4:cjc114_1434"
    INDEX 01 01:03:59
  TRACK 53 AUDIO
    TITLE "0:"
    INDEX 01 01:07:66
  TRACK 54 AUDIO
    TITLE "4:cjc114_1435"
    INDEX 01 01:08:42
  TRACK 55 AUDIO
    TITLE "0:"
    INDEX 01 01:12:64
  TRACK 56 AUDIO
    TITLE "2:cjc114_1436"
    INDEX 01 01:13:32
  TRACK 57 AUDIO
    TITLE "0:"
    INDEX 01 01:14:41
  TRACK 58 AUDIO
    TITLE "3:cjc114_1437"
    INDEX 01 01:14:63
  TRACK 59 AUDIO
    TITLE "0:"
    INDEX 01 01:17:10
  TRACK 60 AUDIO
    TITLE "4:cjc114_1438"
    INDEX 01 01:17:33
  TRACK 61 AUDIO
    TITLE "0:"
    INDEX 01 01:20:18
  TRACK 62 AUDIO
    TITLE "2:cjc114_1439"
    INDEX 01 01:20:67
  TRACK 63 AUDIO
    TITLE "0:"
    INDEX 01 01:22:09
  TRACK 64 AUDIO
    TITLE "3:cjc114_1440"
    INDEX 01 01:22:35
  TRACK 65 AUDIO
    TITLE "0:"
    INDEX 01 01:23:62
  TRACK 66 AUDIO
    TITLE "4:cjc114_1441"
    INDEX 01 01:24:12
  TRACK 67 AUDIO
    TITLE "0:"
    INDEX 01 01:27:53
  TRACK 68 AUDIO
    TITLE "2:cjc114_1442"
    INDEX 01 01:28:25
  TRACK 69 AUDIO
    TITLE "0:"
    INDEX 01 01:29:52
  TRACK 70 AUDIO
    TITLE "3:cjc114_1443"
    INDEX 01 01:30:01
  TRACK 71 AUDIO
    TITLE "0:"
    INDEX 01 01:31:49
  TRACK 72 AUDIO
    TITLE "4:cjc114_1444"
    INDEX 01 01:31:73
  TRACK 73 AUDIO
    TITLE "0:"
    INDEX 01 01:35:49
